<svg version="1.1" xmlns="http://www.w3.org/2000/svg" xmlns:xlink="http://www.w3.org/1999/xlink" x="0px" y="0px" width="44px" height="44px" viewBox="0 0 595.275 595.275" enable-background="new 0 0 595.275 595.275" xml:space="preserve">
            <!-- inner dot  -->
            <path fill="#7ddfd4" d="M332.475,271.601c9.902,17.234,3.958,39.232-13.276,49.134    c-17.234,9.902-39.232,3.958-49.135-13.276c-9.901-17.234-3.957-39.232,13.277-49.134    C300.574,248.422,322.573,254.367,332.475,271.601z M311.349,534.742c0,0-57.904,0.101-106.926-77.486h-14.484    C189.938,457.256,229.97,544.013,311.349,534.742z M90.141,428.292c0,0-29.73-54.128,17.777-139.709l-7.414-13.553    C100.504,275.03,41.526,361.516,90.141,428.292z M84.33,163.102c0,0,35.099-45.697,122.072-38.618l8.799-11.417    C215.201,113.067,121.875,97.604,84.33,163.102z">
            </path>
            <!-- paths -->
            <path fill="#7ddfd4" d="M515.629,198.607c0,0,13.337,49.344-25.116,106.037c-2.134-4.337-4.481-8.705-7.068-13.102    c0.004-0.007,0.008-0.015,0.013-0.021c-3.442-6.099-17.391-25.481-17.391-25.481l0.005-0.019c-0.002,0.005-0.005,0.01-0.008,0.016    c-12.26-15.778-26.956-31.015-43.593-45.269c-3.936-21.552-9.696-41.921-17.153-60.46c30.778,2.031,54.741,12.724,66.033,32.376    c10.047,17.487,8.903,40.069-1.152,64.286c7.374,8.761,13.95,18.921,18.141,25.848c20.616-38.91,23.12-75.411,6.807-103.805    c-14.662-25.521-42.643-41.207-80.103-45.417c-8.655-17.195-43.282-73.756-88.814-73.756c0,0,47.171,13.619,75.941,72.778    c-3.317-0.136-6.691-0.201-10.133-0.172c-23.987-42.769-56.42-66.324-91.604-66.398c-35.184-0.074-67.715,23.344-91.883,66.011    c-49.032-0.612-85.648,15.698-103.304,46.131c-17.656,30.433-13.642,70.317,11.226,112.579c-0.006,0.01-0.011,0.02-0.016,0.029    c3.598,6.75,15.986,23.5,18.229,26.517c12.094,15.407,26.491,30.289,42.76,44.229c3.935,21.552,9.696,41.922,17.153,60.46    c-30.778-2.031-54.741-12.724-66.032-32.376c-10.005-17.413-8.915-39.878,1.023-63.979c-7.337-8.813-13.877-19.065-18.052-26.078    c-20.58,38.881-23.069,75.353-6.768,103.729c17.527,30.507,54.074,46.971,103.109,46.566c23.986,42.769,56.42,66.323,91.604,66.398    c14.385,0.029,28.329-3.864,41.439-11.397c13.288-7.635,25.711-19.032,36.877-33.849c16.972,0.961,82.235,1.643,109.623-41.476    c0,0-35.44,35.094-102.127,30.718c2.073-3.214,4.1-6.544,6.065-10.016c28.986,0.361,53.638-5.175,72.593-16.064    c13.107-7.53,23.497-17.618,30.715-30.06c14.089-24.283,14.364-54.585,1.273-87.309C502.308,307.475,541.45,249.913,515.629,198.607    z M375.56,160.848c4.701,10.352,8.869,21.635,12.404,33.675c-7.56-5.104-15.378-10.007-23.428-14.677    c-8.049-4.67-16.185-9.023-24.368-13.052C352.375,163.887,364.239,161.904,375.56,160.848z M272.564,101.311    c9.001-5.172,18.35-7.84,27.811-7.82c22.666,0.048,43.842,15.544,60.882,41.255c-19.794,2.728-40.337,7.837-61,15.118    c-20.65-7.375-41.19-12.573-60.99-15.383C249.407,119.348,260.682,108.138,272.564,101.311z M172.153,318.515    c-8.621-9.117-16.27-18.4-22.845-27.676c6.613-9.248,14.302-18.499,22.961-27.579c-0.641,9.098-0.978,18.319-0.997,27.625    S171.551,309.414,172.153,318.515z M177.745,220.253c-16.696,14.184-31.457,29.356-43.784,45.084    c-13.629-27.671-16.351-53.77-4.977-73.375c11.374-19.606,35.382-30.198,66.168-32.098    C187.618,178.371,181.771,198.717,177.745,220.253z M299.541,488.821c-20.088-0.042-39.004-12.228-54.91-32.897l-0.052,0.091    c-1.773-2.336-3.482-4.781-5.111-7.254c-0.269-0.398-0.54-0.791-0.808-1.194c0.008-0.001,0.018-0.002,0.026-0.004    c-6.818-10.549-12.098-21.349-14.314-26.1c-0.005,0-0.01,0.002-0.01,0.002c-0.105-0.223-0.203-0.453-0.304-0.677    c-0.538-1.166-0.83-1.832-0.83-1.832h0.019c-4.247-9.661-8.04-20.089-11.293-31.167c7.56,5.104,15.377,10.007,23.426,14.678    c8.05,4.67,16.187,9.022,24.369,13.051c-8.804,2.098-17.424,3.705-25.796,4.84c6.399,13.47,12.413,22.437,14.674,25.623    c16.688-2.931,33.815-7.465,51.033-13.532c20.631,7.367,41.15,12.563,60.934,15.375    C343.445,473.462,322.204,488.867,299.541,488.821z M374.952,421.898c-11.54-1.093-23.446-3.139-35.563-6.09    c8.285-4.029,16.525-8.387,24.678-13.071c8.068-4.636,15.906-9.505,23.486-14.576C383.953,400.23,379.72,411.535,374.952,421.898z     M395.938,347.975c-13.844,11.063-29.097,21.519-45.542,30.967c-16.823,9.666-33.93,17.733-50.829,24.195    c-16.875-6.604-33.814-14.777-50.415-24.408c-16.729-9.706-32.225-20.451-46.237-31.816c-2.762-17.829-4.24-36.627-4.199-55.969    c0.041-19.204,1.534-37.953,4.331-55.868c14.088-11.337,29.664-22.045,46.476-31.705c12.805-7.357,25.773-13.781,38.69-19.282    c-10.361-3.648-30.963-10.003-38.257-12.237c-4.725,2.471-9.43,5.038-14.105,7.724c-8.146,4.682-16.058,9.601-23.707,14.726    c3.555-11.956,7.795-23.261,12.665-33.782c11.114,1.08,22.753,3.062,34.72,5.932l0.005-0.002    c18.711,4.166,41.74,13.196,41.74,13.196l-0.019,0.015c16.478,6.452,33.132,14.422,49.511,23.925    c16.73,9.707,32.225,20.451,46.237,31.817c2.761,17.829,4.239,36.627,4.198,55.969c-0.03,14.768-0.951,29.21-2.646,43.147    c8.292-7.104,24.078-21.752,29.727-27.013c0.222-5.327,0.351-10.686,0.362-16.077c0.02-9.306-0.278-18.528-0.88-27.629    c8.62,9.117,16.27,18.4,22.845,27.676c-6.461,9.034-13.955,18.071-22.371,26.95l-0.002,0.017    c-12.962,14.123-32.296,29.552-32.296,29.552L395.938,347.975z M470.933,390.35c-11.015,18.988-34.233,30.154-66.19,32.154    c7.546-18.522,13.4-38.887,17.43-60.443c16.697-14.184,31.458-29.357,43.784-45.084C479.586,344.646,482.307,370.745,470.933,390.35    z">
            </path>
            </svg>